<?xml version="1.0" encoding="UTF-8" standalone="no"?>
<svg
   xmlns:dc="http://purl.org/dc/elements/1.1/"
   xmlns:cc="http://creativecommons.org/ns#"
   xmlns:rdf="http://www.w3.org/1999/02/22-rdf-syntax-ns#"
   xmlns:svg="http://www.w3.org/2000/svg"
   xmlns="http://www.w3.org/2000/svg"
   xmlns:sodipodi="http://sodipodi.sourceforge.net/DTD/sodipodi-0.dtd"
   xmlns:inkscape="http://www.inkscape.org/namespaces/inkscape"
   inkscape:version="1.0 (4035a4fb49, 2020-05-01)"
   inkscape:export-ydpi="96"
   inkscape:export-xdpi="96"
   inkscape:export-filename="C:\Users\Anant\Desktop\logo4.png"
   sodipodi:docname="code gurukul.svg"
   viewBox="0 0 841.88977 595.27557"
   id="svg511"
   height="595.27557"
   width="841.88977"
   version="1.1">
  <metadata
     id="metadata517">
    <rdf:RDF>
      <cc:Work
         rdf:about="">
        <dc:format>image/svg+xml</dc:format>
        <dc:type
           rdf:resource="http://purl.org/dc/dcmitype/StillImage" />
        <dc:title></dc:title>
      </cc:Work>
    </rdf:RDF>
  </metadata>
  <defs
     id="defs515" />
  <sodipodi:namedview
     inkscape:current-layer="Layer1008"
     inkscape:window-maximized="1"
     inkscape:window-y="-9"
     inkscape:window-x="-9"
     inkscape:cy="297.63779"
     inkscape:cx="414.13149"
     inkscape:zoom="1.3943122"
     showgrid="false"
     id="namedview513"
     inkscape:window-height="1001"
     inkscape:window-width="1920"
     inkscape:pageshadow="2"
     inkscape:pageopacity="0"
     guidetolerance="10"
     gridtolerance="10"
     objecttolerance="10"
     borderopacity="1"
     bordercolor="#666666"
     pagecolor="#ffffff" />
  <g
     id="Layer1006">
    <path
       id="path475"
       style="fill:none;stroke:#1b1918;stroke-width:8.5039;stroke-linecap:butt;stroke-linejoin:miter;stroke-dasharray:none"
       d="M 549.0249,367.8242 V 87.8865 H 292.8345 V 367.8242 507.793 h 256.1904 z" />
    <g
       id="Layer1007">
      <path
         id="path477"
         style="fill:#6eb31e;fill-rule:evenodd"
         d="m 471.8994,237.5692 c -7.71,-11.1436 -4.1693,-23.5353 11.1405,-22.1987 9.6128,0.8399 15.4467,12.3187 7.8432,21.3059 -4.1629,5.9742 -5.3639,14.7973 3.2128,17.3921 6.4854,1.9619 21.9227,2.5204 27.5234,-2.1846 9.5589,-8.0303 0.2528,-43.6128 -3.1703,-53.9864 -4.8564,-14.7139 -7.2231,-25.5347 -15.5985,-38.8531 -6.1068,-11.253 -24.6788,-35.6059 -40.6504,-44.6847 -8.0399,-4.5702 -30.748,-15.2771 -37.1564,-6.5023 -8.9539,12.2606 6.6385,70.0483 -6.7439,79.1445 -5.5147,3.7485 -10.6677,2.062 -15.8374,-1.0473 -16.0846,-9.6742 -21.7312,10.2451 -12.5518,15.6688 5.9652,3.5246 10.1482,-0.3048 15.1971,-2.764 5.0778,-2.4733 11.8797,-2.1562 15.5394,2.5691 6.6416,8.5765 2.1897,27.4899 1.7761,38.8931 -0.2763,7.6176 -1.1984,12.2764 8.3647,12.5468 10.3449,0.2884 19.5731,2.7375 29.3192,2.1609 10.3221,-0.6103 19.1711,-6.7946 11.7923,-17.4601 z" />
      <path
         id="path479"
         style="fill:#ffca00;fill-rule:evenodd"
         d="m 345.5648,147.6245 c -4.7665,7.8008 -9.9866,15.565 -13.4632,24.2302 -7.6202,18.9885 -14.0235,38.3907 -15.3497,58.9954 -0.5407,8.4005 -2.4741,19.0414 8.9852,19.4088 7.5762,0.2427 19.4824,-1.8878 25.5891,3.537 2.8111,2.4973 4.3295,6.5457 4.1353,10.2677 -0.2363,4.5215 -2.4663,6.5792 -4.528,10.2053 -4.2381,7.4535 1.053,16.1833 9.6525,15.2637 3.6306,-0.3882 6.9898,-2.852 8.321,-6.2678 1.5373,-3.9446 0.1108,-7.6119 -1.7758,-11.1317 -4.4666,-7.4321 -5.5517,-13.0198 -0.4869,-17.2008 3.4299,-2.8313 13.538,-3.6227 23.9367,-3.4809 11.3136,0.1542 22.7781,0.7612 28.4989,0.8602 -0.004,-6.2297 -0.1057,-12.8467 0.3005,-19.0451 0.3699,-5.6382 1.8432,-11.339 1.8954,-16.8373 0.1065,-11.2144 -4.7471,-21.4812 -17.042,-13.6429 -9.2889,5.9215 -18.4931,3.835 -21.698,-6.528 -2.8274,-10.7872 8.0565,-19.3912 18.2895,-14.4342 4.6004,2.2286 7.1197,5.7899 13.0768,4.0377 12.8828,-3.7887 5.1673,-76.0117 0.3541,-79.7151 -18.0364,-13.8765 -60.2802,27.7101 -68.6914,41.4778 z" />
      <path
         id="path481"
         style="fill:#408ec7;fill-rule:evenodd"
         d="m 419.6195,300.3294 c 0.8412,2.9363 1.1533,4.0031 3.4865,6.0574 1.6177,1.4243 4.9154,2.7494 7.0755,2.2673 3.0899,-0.6902 4.2934,-1.0234 6.7053,-3.0665 1.7642,-1.4948 3.8913,-3.1643 6.2505,-3.5294 8.7368,-1.3524 15.8971,4.504 15.7655,13.2651 -0.1168,7.7224 -8.0634,14.1782 -15.5279,11.7598 -4.4295,-1.4369 -8.4193,-5.1397 -12.4021,-5.6525 -3.2838,-0.4229 -6.7754,0.6101 -9.0097,3.1296 -3.265,3.6805 -3.2088,10.6937 -3.0408,15.3299 0.2667,7.3599 2.0197,17.8951 10.6426,19.1181 58.663,8.3196 115.0066,-95.4656 89.1968,-101.2067 -8.6655,-0.5687 -21.0304,1.8387 -28.4363,-2.8441 -3.3755,-2.1341 -5.2875,-6.328 -5.2322,-10.2445 0.0764,-5.4082 2.4905,-6.6796 4.7411,-10.7898 4.6171,-8.4324 -2.3476,-17.7471 -11.7249,-14.9631 -3.9565,1.1748 -6.7174,4.5945 -6.9432,8.7309 -0.2741,5.0233 2.4468,7.003 4.6272,10.9747 3.7634,6.855 1.0532,17.0231 -10.0252,18.7739 -9.1279,1.4426 -20.046,-0.8229 -29.3571,-1.662 -17.8144,-1.6049 -14.1827,0.4714 -15.2447,15.5794 -0.8979,12.7746 -2.8689,14.9254 -1.5469,28.9725 z" />
      <path
         id="path483"
         style="fill:#e11948;fill-rule:evenodd"
         d="m 321.3479,254.9371 c -11.3043,3.8305 -1.4235,31.1518 1.2898,38.57 3.0619,8.3718 9.5639,18.6437 15.1091,25.6514 6.0949,7.7028 12.7714,13.8039 20.4355,19.9075 3.6631,2.9171 8.5911,5.5136 12.7058,7.8547 8.3743,4.7651 24.493,10.5848 36.0366,11.1222 3.2393,0.1508 4.4457,-0.4243 6.3162,-2.3448 2.0248,-2.0789 3.4339,-6.2886 3.2072,-10.6694 -0.353,-10.0004 -1.8393,-24.7064 11.7653,-25.9277 7.1935,-0.6456 8.4873,2.9836 14.0116,4.7364 13.9659,4.4304 17.044,-13.9869 7.4346,-17.7573 -5.9072,-2.318 -8.8163,0.8951 -13.3807,3.4251 -4.0913,2.2678 -10.7483,2.2858 -14.5746,-0.5362 -8.1484,-6.0098 -5.2801,-22.7648 -4.1299,-31.3545 0.4635,-3.46 1.4449,-17.9794 0.6775,-20.9652 0.9094,-1.2879 -45.1789,-5.2125 -50.962,2.4465 -3.9988,5.2962 3.4397,13.05 4.6478,15.876 6.5237,15.2611 -15.2577,25.5617 -24.312,11.3863 -2.91,-5.6187 -1.952,-11.4898 2.0741,-15.905 1.9712,-2.1621 3.371,-4.3597 3.2624,-7.3681 -0.0913,-2.5322 -1.4544,-5.8254 -3.4986,-7.3999 -2.9354,-2.2611 -4.7854,-2.1153 -8.352,-2.2625 -7.9246,-0.3267 -11.9996,-0.1065 -19.7637,1.5145 z" />
    </g>
    <g
       id="Layer1008">
      <g
         transform="translate(-6)"
         id="Layer1009">
        <text
           id="text488"
           y="433.02219"
           x="333.9541"><tspan
             id="tspan486"
             fill="#3a3a3a"
             font-size="54.5px"
             font-family="'Geometr415 Blk BT'">C</tspan></text>
        <text
           id="text492"
           y="432.995"
           x="380.46271"><tspan
             id="tspan490"
             fill="#3a3a3a"
             font-size="54.5px"
             font-family="'Geometr415 Blk BT'">O</tspan></text>
        <text
           id="text496"
           y="431.7446"
           x="433.86121"><tspan
             id="tspan494"
             fill="#3a3a3a"
             font-size="54.5px"
             font-family="'Geometr415 Blk BT'">D</tspan></text>
        <text
           id="text500"
           y="431.7446"
           x="483.9823"><tspan
             id="tspan498"
             fill="#3a3a3a"
             font-size="54.5px"
             font-family="'Geometr415 Blk BT'">E</tspan></text>
      </g>
      <text
         id="text505"
         y="479.42871"
         x="331.95471"><tspan
           id="tspan503"
           fill="#3a3a3a"
           font-size="36.5px"
           font-family="'Geometr415 Blk BT'">GURUKUL</tspan></text>
      <path
         id="path507"
         style="fill:#3a3a3a;fill-rule:evenodd"
         d="m 333.954,438.635 v 2.1609 h 173.9509 v -2.1609 z" />
    </g>
  </g>
</svg>
